<?xml version="1.0" standalone="no"?>
<!DOCTYPE svg PUBLIC "-//W3C//DTD SVG 1.1//EN"
  "http://www.w3.org/Graphics/SVG/1.1/DTD/svg11.dtd">
<svg width="152mm" height="44.999999999999986mm" viewBox="110 -53.999999999999986 152 44.999999999999986" xmlns="http://www.w3.org/2000/svg" version="1.1">
	<title>svgOutput</title>
	<desc>made with tinkercad</desc>
<path d="M 261 -9.999999999999998 L 259.0932922363281 -9.999999999999998 L 229.37600708007812 -9.999999999999998 L 222.4980010986328 -9.999999999999998 L 196.60800170898438 -9.999999999999998 L 184.4980010986328 -9.999999999999998 L 141.9980010986328 -9.999999999999998 L 131.07200622558594 -9.999999999999998 L 126.28230285644531 -9.999999999999998 L 111 -9.999999999999998 L 111 -14.552926063537594 L 111 -16.218875885009762 L 111 -25.802795410156243 L 111 -32.76800155639648 L 111 -51.876926422119126 L 111 -52.999999999999986 L 112.82431030273438 -52.999999999999986 L 119.03829193115234 -52.999999999999986 L 131.07200622558594 -52.999999999999986 L 141.9980010986328 -52.999999999999986 L 175.0030059814453 -52.999999999999986 L 184.4980010986328 -52.999999999999986 L 196.60800170898438 -52.999999999999986 L 216.5030059814453 -52.999999999999986 L 222.4980010986328 -52.999999999999986 L 229.37600708007812 -52.999999999999986 L 245.64369201660156 -52.999999999999986 L 251.84829711914062 -52.999999999999986 L 256.35369873046875 -52.999999999999986 L 261 -52.999999999999986 L 261 -32.76800155639648 L 261 -21.52948951721191 L 261 -14.574972152709957 L 261 -12.16300010681152 L 261 -9.999999999999998 M 252.9040069580078 -49.486999511718736 L 253.77000427246094 -49.74499893188475 L 254.1009979248047 -50.16199874877928 L 253.77000427246094 -50.578998565673814 L 252.9040069580078 -50.837001800537095 L 251.83299255371094 -50.837001800537095 L 250.9669952392578 -50.578998565673814 L 250.63600158691406 -50.16199874877928 L 250.9669952392578 -49.74499893188475 L 251.83299255371094 -49.486999511718736 L 252.9040069580078 -49.486999511718736 M 247.906005859375 -44.445999145507805 L 246.6192626953125 -45.101631164550774 L 243.44500732421875 -46.719001770019524 L 239.89810180664062 -47.2813377380371 L 238.5 -47.502998352050774 L 233.55499267578125 -46.719001770019524 L 229.37600708007812 -44.5896873474121 L 229.093994140625 -44.445999145507805 L 225.5540008544922 -40.90599822998046 L 223.281005859375 -36.44499969482421 L 222.6987762451172 -32.76800155639648 L 222.4980010986328 -31.499999999999993 L 223.281005859375 -26.555000305175774 L 225.5540008544922 -22.093999862670895 L 229.093994140625 -18.554000854492184 L 229.37600708007812 -18.410312652587887 L 233.55499267578125 -16.281000137329098 L 238.5 -15.498000144958493 L 239.8965301513672 -15.719129562377926 L 243.44500732421875 -16.281000137329098 L 243.50697326660156 -16.31257629394531 L 247.906005859375 -18.554000854492184 L 248.83023071289062 -19.478223800659176 L 251.4459991455078 -22.093999862670895 L 253.718994140625 -26.555000305175774 L 254.5030059814453 -31.499999999999993 L 254.30197143554688 -32.76800155639648 L 253.718994140625 -36.44499969482421 L 251.4459991455078 -40.90599822998046 L 248.83023071289062 -43.521778106689446 L 247.906005859375 -44.445999145507805 M 250.63600158691406 -12.838000297546383 L 250.9669952392578 -12.420999526977536 L 251.83299255371094 -12.16300010681152 L 252.9040069580078 -12.16300010681152 L 253.77000427246094 -12.420999526977536 L 254.1009979248047 -12.838000297546383 L 253.77000427246094 -13.255000114440914 L 252.9040069580078 -13.51299953460693 L 251.83299255371094 -13.51299953460693 L 250.9669952392578 -13.255000114440914 L 250.63600158691406 -12.838000297546383 M 196.60800170898438 -16.114265441894528 L 200.5 -15.498000144958493 L 205.44500732421875 -16.281000137329098 L 209.906005859375 -18.554000854492184 L 213.4459991455078 -22.093999862670895 L 215.718994140625 -26.555000305175774 L 216.5030059814453 -31.499999999999993 L 216.30197143554688 -32.76800155639648 L 215.718994140625 -36.44499969482421 L 213.4459991455078 -40.90599822998046 L 209.906005859375 -44.445999145507805 L 205.44500732421875 -46.719001770019524 L 200.5 -47.502998352050774 L 196.60800170898438 -46.88594818115234 L 195.55499267578125 -46.719001770019524 L 191.093994140625 -44.445999145507805 L 187.5540008544922 -40.90599822998046 L 185.281005859375 -36.44499969482421 L 184.6987762451172 -32.76800155639648 L 184.4980010986328 -31.499999999999993 L 185.281005859375 -26.555000305175774 L 187.5540008544922 -22.093999862670895 L 191.093994140625 -18.554000854492184 L 195.55499267578125 -16.281000137329098 L 196.60800170898438 -16.114265441894528 M 153.39999389648438 -15.805000305175778 L 158.5 -14.998000144958493 L 163.60000610351562 -15.805000305175778 L 168.1999969482422 -18.149000167846676 L 171.8509979248047 -21.799999237060543 L 174.19500732421875 -26.399999618530266 L 175.0030059814453 -31.499999999999993 L 174.80210876464844 -32.76800155639648 L 174.19500732421875 -36.59999847412109 L 171.8509979248047 -41.200000762939446 L 168.1999969482422 -44.851001739501946 L 163.60000610351562 -47.19499969482421 L 158.5 -48.00299835205077 L 153.39999389648438 -47.19499969482421 L 148.8000030517578 -44.851001739501946 L 145.1490020751953 -41.200000762939446 L 142.80499267578125 -36.59999847412109 L 142.19863891601562 -32.76800155639648 L 141.9980010986328 -31.499999999999993 L 142.80499267578125 -26.399999618530266 L 145.1490020751953 -21.799999237060543 L 148.8000030517578 -18.149000167846676 L 153.39999389648438 -15.805000305175778 M 117.82499694824219 -50.16199874877928 L 118.15599822998047 -49.74499893188475 L 119.02200317382812 -49.486999511718736 L 120.09300231933594 -49.486999511718736 L 120.95999908447266 -49.74499893188475 L 121.29100036621094 -50.16199874877928 L 120.95999908447266 -50.578998565673814 L 120.09300231933594 -50.837001800537095 L 119.02200317382812 -50.837001800537095 L 118.15599822998047 -50.578998565673814 L 117.82499694824219 -50.16199874877928 M 117.82499694824219 -12.838000297546383 L 118.15599822998047 -12.420999526977536 L 119.02200317382812 -12.16300010681152 L 120.09300231933594 -12.16300010681152 L 120.95999908447266 -12.420999526977536 L 121.29100036621094 -12.838000297546383 L 120.95999908447266 -13.255000114440914 L 120.09300231933594 -13.51299953460693 L 119.02200317382812 -13.51299953460693 L 118.15599822998047 -13.255000114440914 L 117.82499694824219 -12.838000297546383 z" fill="none" stroke="rgb(255,0,0)" stroke-width="0.001mm" />
</svg>