<?xml version="1.0" standalone="no"?>
<!DOCTYPE svg PUBLIC "-//W3C//DTD SVG 1.1//EN"
  "http://www.w3.org/Graphics/SVG/1.1/DTD/svg11.dtd">
<svg width="102mm" height="44.99999999999999mm" viewBox="159.5 -3.999999999999999 102 44.99999999999999" xmlns="http://www.w3.org/2000/svg" version="1.1">
	<title>svgOutput</title>
	<desc>made with tinkercad</desc>
<path d="M 260.5 39.99999999999999 L 259.23480224609375 39.99999999999999 L 234.61610412597656 39.99999999999999 L 229.37600708007812 39.99999999999999 L 213.4980010986328 39.99999999999999 L 196.60800170898438 39.99999999999999 L 170.68540954589844 39.99999999999999 L 160.5 39.99999999999999 L 160.5 35.445693969726555 L 160.5 33.78112411499023 L 160.5 24.159181594848626 L 160.5 1.1102230246251565e-16 L 160.5 -0.8370000123977658 L 160.5 -2.999999999999999 L 161.71620178222656 -2.999999999999999 L 165.86273193359375 -2.999999999999999 L 196.60800170898438 -2.999999999999999 L 198.5030059814453 -2.999999999999999 L 213.4980010986328 -2.999999999999999 L 229.37600708007812 -2.999999999999999 L 250.26559448242188 -2.999999999999999 L 254.3969268798828 -2.999999999999999 L 257.4050598144531 -2.999999999999999 L 260.5 -2.999999999999999 L 260.5 1.1102230246251565e-16 L 260.5 28.484249114990227 L 260.5 35.423782348632805 L 260.5 37.8370018005371 L 260.5 39.99999999999999 M 253.59100341796875 -0.16200000047683702 L 253.6764678955078 1.1102230246251565e-16 L 253.81100463867188 0.2549999952316285 L 254.38900756835938 0.5130000114440918 L 255.10299682617188 0.5130000114440918 L 255.67999267578125 0.2549999952316285 L 255.8151397705078 1.1102230246251565e-16 L 255.9010009765625 -0.16200000047683702 L 255.67999267578125 -0.5789999961853025 L 255.10299682617188 -0.8370000123977658 L 254.38900756835938 -0.8370000123977658 L 253.81100463867188 -0.5789999961853025 L 253.59100341796875 -0.16200000047683702 M 229.37600708007812 33.98304367065429 L 234.1179962158203 33.23199844360351 L 235.02838134765625 32.76800155639648 L 238.50900268554688 30.993999481201165 L 240.3813934326172 29.121612548828118 L 241.99400329589844 27.509000778198235 L 244.23199462890625 23.118000030517575 L 244.51707458496094 21.31807708740234 L 245.0030059814453 18.249999999999996 L 244.23199462890625 13.381999969482418 L 241.99400329589844 8.991000175476072 L 238.50900268554688 5.506000041961669 L 234.1179962158203 3.2679998874664298 L 229.37600708007812 2.5179302692413326 L 229.25 2.4979999065399165 L 224.3820037841797 3.2679998874664298 L 219.99099731445312 5.506000041961669 L 216.50599670410156 8.991000175476072 L 214.26800537109375 13.381999969482418 L 213.4980010986328 18.249999999999996 L 214.26800537109375 23.118000030517575 L 216.50599670410156 27.509000778198235 L 219.99099731445312 30.993999481201165 L 223.47161865234375 32.76800155639648 L 224.3820037841797 33.23199844360351 L 229.25 34.002998352050774 L 229.37600708007812 33.98304367065429 M 253.59100341796875 37.16199874877929 L 253.81100463867188 37.57899856567382 L 254.38900756835938 37.8370018005371 L 255.10299682617188 37.8370018005371 L 255.67999267578125 37.57899856567382 L 255.9010009765625 37.16199874877929 L 255.67999267578125 36.74499893188476 L 255.10299682617188 36.48699951171874 L 254.38900756835938 36.48699951171874 L 253.81100463867188 36.74499893188476 L 253.59100341796875 37.16199874877929 M 197.70700073242188 13.72799968719482 L 196.60800170898438 11.570474624633787 L 195.3990020751953 9.19699954986572 L 191.80299377441406 5.600999832153319 L 187.27200317382812 3.2929999828338614 L 182.25 2.4979999065399165 L 177.22799682617188 3.2929999828338614 L 174.81460571289062 4.5223326683044425 L 172.69700622558594 5.600999832153319 L 169.1009979248047 9.19699954986572 L 166.79299926757812 13.72799968719482 L 165.9980010986328 18.749999999999996 L 166.79299926757812 23.771999359130856 L 169.1009979248047 28.302999496459954 L 171.02090454101562 30.222909927368157 L 172.69700622558594 31.899000167846673 L 174.4029998779297 32.76800155639648 L 176.04469299316406 33.60424423217773 L 177.22799682617188 34.20700073242187 L 182.25 35.002998352050774 L 187.27200317382812 34.20700073242187 L 190.0970001220703 32.76800155639648 L 191.80299377441406 31.899000167846673 L 195.3990020751953 28.302999496459954 L 196.60800170898438 25.929525375366204 L 197.70700073242188 23.771999359130856 L 198.5030059814453 18.749999999999996 L 197.70700073242188 13.72799968719482 M 165.0500030517578 -0.16200000047683702 L 165.13584899902344 1.1102230246251565e-16 L 165.27099609375 0.2549999952316285 L 165.84800720214844 0.5130000114440918 L 165.9980010986328 0.5130000114440918 L 166.56199645996094 0.5130000114440918 L 167.13999938964844 0.2549999952316285 L 167.2745361328125 1.1102230246251565e-16 L 167.36000061035156 -0.16200000047683702 L 167.13999938964844 -0.5789999961853025 L 166.56199645996094 -0.8370000123977658 L 165.84800720214844 -0.8370000123977658 L 165.27099609375 -0.5789999961853025 L 165.0500030517578 -0.16200000047683702 M 165.0500030517578 37.16199874877929 L 165.27099609375 37.57899856567382 L 165.84800720214844 37.8370018005371 L 166.56199645996094 37.8370018005371 L 167.13999938964844 37.57899856567382 L 167.36000061035156 37.16199874877929 L 167.13999938964844 36.74499893188476 L 166.56199645996094 36.48699951171874 L 165.84800720214844 36.48699951171874 L 165.27099609375 36.74499893188476 L 165.0500030517578 37.16199874877929 z" fill="none" stroke="rgb(255,0,0)" stroke-width="0.001mm" />
</svg>