<?xml version="1.0" standalone="no"?>
<!DOCTYPE svg PUBLIC "-//W3C//DTD SVG 1.1//EN"
  "http://www.w3.org/Graphics/SVG/1.1/DTD/svg11.dtd">
<svg width="266.6800079345703mm" height="102.00799560546872mm" viewBox="-156.4600067138672 140.99200439453122 266.6800079345703 102.00799560546872" xmlns="http://www.w3.org/2000/svg" version="1.1">
	<title>svgOutput</title>
	<desc>made with tinkercad</desc>
<path d="M 109.22000122070312 241.99999999999994 L 94.28722381591797 241.99999999999994 L 65.53600311279297 241.99999999999994 L 0 241.99999999999994 L -131.07200622558594 241.99999999999994 L -155.4600067138672 241.99999999999994 L -155.4600067138672 240.99971008300776 L -155.4600067138672 235.81010437011713 L -155.4600067138672 229.94578552246088 L -155.4600067138672 196.60800170898432 L -155.4600067138672 171.2484436035156 L -155.4600067138672 154.20075988769528 L -155.4600067138672 154.04620361328122 L -155.4600067138672 141.99200439453122 L -145.34506225585938 141.99200439453122 L -131.07200622558594 141.99200439453122 L 0 141.99200439453122 L 65.53600311279297 141.99200439453122 L 101.06999969482422 141.99200439453122 L 106.13493347167969 141.99200439453122 L 109.22000122070312 141.99200439453122 L 109.22000122070312 145.85527038574216 L 109.22000122070312 150.61235046386716 L 109.22000122070312 196.60800170898432 L 109.22000122070312 225.11120605468744 L 109.22000122070312 232.6612701416015 L 109.22000122070312 233.379653930664 L 109.22000122070312 241.99999999999994 M 104.2699966430664 148.5930023193359 L 103.88400268554688 147.53199768066403 L 102.90699768066406 146.9680023193359 L 101.79499816894531 147.16400146484372 L 101.06999969482422 148.02799987792966 L 101.06999969482422 149.15699768066403 L 101.79499816894531 150.0220031738281 L 102.90699768066406 150.2180023193359 L 103.88400268554688 149.65299987792966 L 104.2699966430664 148.5930023193359 M 104.2699966430664 235.39900207519526 L 103.88400268554688 234.3390045166015 L 102.90699768066406 233.77400207519526 L 101.79499816894531 233.97000122070307 L 101.06999969482422 234.83500671386713 L 101.06999969482422 235.9640045166015 L 101.79499816894531 236.82800292968744 L 102.90699768066406 237.02400207519526 L 103.88400268554688 236.46000671386713 L 104.2699966430664 235.39900207519526 M -150.41000366210938 149.15699768066403 L -149.68499755859375 150.0220031738281 L -148.572998046875 150.2180023193359 L -147.5959930419922 149.65299987792966 L -147.2100067138672 148.5930023193359 L -147.5959930419922 147.53199768066403 L -148.572998046875 146.9680023193359 L -149.68499755859375 147.16400146484372 L -150.41000366210938 148.02799987792966 L -150.41000366210938 149.15699768066403 M -147.2100067138672 235.39900207519526 L -147.5959930419922 234.3390045166015 L -148.572998046875 233.77400207519526 L -149.68499755859375 233.97000122070307 L -150.41000366210938 234.83500671386713 L -150.41000366210938 235.9640045166015 L -149.68499755859375 236.82800292968744 L -148.572998046875 237.02400207519526 L -147.5959930419922 236.46000671386713 L -147.2100067138672 235.39900207519526 z" fill="none" stroke="rgb(255,0,0)" stroke-width="0.001mm" />
</svg>