<?xml version="1.0" standalone="no"?>
<!DOCTYPE svg PUBLIC "-//W3C//DTD SVG 1.1//EN"
  "http://www.w3.org/Graphics/SVG/1.1/DTD/svg11.dtd">
<svg width="102.03599548339844mm" height="144.8509998321533mm" viewBox="126 -24.42000007629394 102.03599548339844 144.8509998321533" xmlns="http://www.w3.org/2000/svg" version="1.1">
	<title>svgOutput</title>
	<desc>made with tinkercad</desc>
<path d="M 227.03599548339844 119.43099975585935 L 223.28746032714844 119.43099975585935 L 196.60800170898438 119.43099975585935 L 159.0886688232422 119.43099975585935 L 140.337646484375 119.43099975585935 L 136.45745849609375 119.43099975585935 L 131.07200622558594 119.43099975585935 L 127 119.43099975585935 L 127 65.53600311279295 L 127 1.1102230246251565e-16 L 127 -23.42000007629394 L 131.07200622558594 -23.42000007629394 L 132.0330047607422 -23.42000007629394 L 136.46209716796875 -23.42000007629394 L 148.84585571289062 -23.42000007629394 L 196.60800170898438 -23.42000007629394 L 223.29208374023438 -23.42000007629394 L 227.03599548339844 -23.42000007629394 L 227.03599548339844 -20.61427307128906 L 227.03599548339844 -16.32572746276855 L 227.03599548339844 -10.40962505340576 L 227.03599548339844 1.1102230246251565e-16 L 227.03599548339844 65.53600311279295 L 227.03599548339844 101.06950378417966 L 227.03599548339844 109.04353332519528 L 227.03599548339844 113.31846618652341 L 227.03599548339844 119.2497634887695 L 227.03599548339844 119.43099975585935 M 218.86300659179688 -16.30999946594238 L 219.46299743652344 -15.484999656677243 L 220.43299865722656 -15.170000076293942 L 221.4029998779297 -15.484999656677243 L 222.0030059814453 -16.30999946594238 L 222.0030059814453 -17.32999992370605 L 221.4029998779297 -18.155000686645504 L 220.43299865722656 -18.46999931335449 L 219.46299743652344 -18.155000686645504 L 218.86300659179688 -17.32999992370605 L 218.86300659179688 -16.30999946594238 M 133.60299682617188 -15.170000076293942 L 134.572998046875 -15.484999656677243 L 135.17300415039062 -16.30999946594238 L 135.17300415039062 -17.32999992370605 L 134.572998046875 -18.155000686645504 L 133.60299682617188 -18.46999931335449 L 132.63299560546875 -18.155000686645504 L 132.0330047607422 -17.32999992370605 L 132.0330047607422 -16.30999946594238 L 132.63299560546875 -15.484999656677243 L 133.60299682617188 -15.170000076293942 M 220.43299865722656 114.48000335693357 L 221.4029998779297 114.16600036621091 L 222.0030059814453 113.3399963378906 L 222.0030059814453 112.32099914550778 L 221.4029998779297 111.495002746582 L 220.43299865722656 111.18099975585935 L 219.46299743652344 111.495002746582 L 218.86300659179688 112.32099914550778 L 218.86300659179688 113.3399963378906 L 219.46299743652344 114.16600036621091 L 220.43299865722656 114.48000335693357 M 133.60299682617188 114.48000335693357 L 134.572998046875 114.16600036621091 L 135.17300415039062 113.3399963378906 L 135.17300415039062 112.32099914550778 L 134.572998046875 111.495002746582 L 133.60299682617188 111.18099975585935 L 132.63299560546875 111.495002746582 L 132.0330047607422 112.32099914550778 L 132.0330047607422 113.3399963378906 L 132.63299560546875 114.16600036621091 L 133.60299682617188 114.48000335693357 z" fill="none" stroke="rgb(255,0,0)" stroke-width="0.001mm" />
</svg>