<?xml version="1.0" standalone="no"?>
<!DOCTYPE svg PUBLIC "-//W3C//DTD SVG 1.1//EN"
  "http://www.w3.org/Graphics/SVG/1.1/DTD/svg11.dtd">
<svg width="144.85000610351562mm" height="101.99999999999997mm" viewBox="-72.42500305175781 -50.999999999999986 144.85000610351562 101.99999999999997" xmlns="http://www.w3.org/2000/svg" version="1.1">
	<title>svgOutput</title>
	<desc>made with tinkercad</desc>
<path d="M 71.42500305175781 49.999999999999986 L 69.62417602539062 49.999999999999986 L 0 49.999999999999986 L -56.85582733154297 49.999999999999986 L -71.42500305175781 49.999999999999986 L -71.42500305175781 39.42189788818359 L -71.42500305175781 35.543315887451165 L -71.42500305175781 13.222222328186032 L -71.42500305175781 1.1102230246251565e-16 L -71.42500305175781 -47.378101348876946 L -71.42500305175781 -49.999999999999986 L -69.69417572021484 -49.999999999999986 L -63.7682991027832 -49.999999999999986 L -51.51387405395508 -49.999999999999986 L 0 -49.999999999999986 L 56.78582763671875 -49.999999999999986 L 62.711700439453125 -49.999999999999986 L 66.99829864501953 -49.999999999999986 L 71.42500305175781 -49.999999999999986 L 71.42500305175781 1.1102230246251565e-16 L 71.42500305175781 23.168571472167965 L 71.42500305175781 39.3710708618164 L 71.42500305175781 44.969001770019524 L 71.42500305175781 49.999999999999986 M 63.71500015258789 -41.831001281738274 L 64.54000091552734 -42.430000305175774 L 64.8550033569336 -43.4000015258789 L 64.54000091552734 -44.36999893188476 L 63.71500015258789 -44.969001770019524 L 62.69499969482422 -44.969001770019524 L 61.869998931884766 -44.36999893188476 L 61.55500030517578 -43.4000015258789 L 61.869998931884766 -42.430000305175774 L 62.69499969482422 -41.831001281738274 L 63.71500015258789 -41.831001281738274 M 61.55500030517578 43.4000015258789 L 61.869998931884766 44.36999893188476 L 62.69499969482422 44.969001770019524 L 63.71500015258789 44.969001770019524 L 64.54000091552734 44.36999893188476 L 64.8550033569336 43.4000015258789 L 64.54000091552734 42.430000305175774 L 63.71500015258789 41.831001281738274 L 62.69499969482422 41.831001281738274 L 61.869998931884766 42.430000305175774 L 61.55500030517578 43.4000015258789 M -64.92500305175781 -43.4000015258789 L -64.61000061035156 -42.430000305175774 L -63.78499984741211 -41.831001281738274 L -62.76499938964844 -41.831001281738274 L -61.939998626708984 -42.430000305175774 L -61.625 -43.4000015258789 L -61.939998626708984 -44.36999893188476 L -62.76499938964844 -44.969001770019524 L -63.78499984741211 -44.969001770019524 L -64.61000061035156 -44.36999893188476 L -64.92500305175781 -43.4000015258789 M -64.92500305175781 43.4000015258789 L -64.61000061035156 44.36999893188476 L -63.78499984741211 44.969001770019524 L -62.76499938964844 44.969001770019524 L -61.939998626708984 44.36999893188476 L -61.625 43.4000015258789 L -61.939998626708984 42.430000305175774 L -62.76499938964844 41.831001281738274 L -63.78499984741211 41.831001281738274 L -64.61000061035156 42.430000305175774 L -64.92500305175781 43.4000015258789 z" fill="none" stroke="rgb(255,0,0)" stroke-width="0.001mm" />
</svg>