<?xml version="1.0" standalone="no"?>
<!DOCTYPE svg PUBLIC "-//W3C//DTD SVG 1.1//EN"
  "http://www.w3.org/Graphics/SVG/1.1/DTD/svg11.dtd">
<svg width="277mm" height="153.18200683593747mm" viewBox="-138.5 -76.59100341796874 277 153.18200683593747" xmlns="http://www.w3.org/2000/svg" version="1.1">
	<title>svgOutput</title>
	<desc>made with tinkercad</desc>
<path d="M 137.5 75.59100341796874 L 0 75.59100341796874 L -137.5 75.59100341796874 L -137.5 73.98999786376952 L -137.5 70.39099884033202 L -137.5 58.683437347412095 L -137.5 47.219001770019524 L -137.5 1.1102230246251565e-16 L -137.5 -68.78282165527342 L -137.5 -70.39099884033202 L -137.5 -75.59100341796874 L -133.60546875 -75.59100341796874 L -124.19000244140625 -75.59100341796874 L -113.8367919921875 -75.59100341796874 L -50.33311080932617 -75.59100341796874 L 0 -75.59100341796874 L 137.5 -75.59100341796874 L 137.5 -72.3925323486328 L 137.5 -64.24588012695311 L 137.5 -55.085468292236314 L 137.5 -26.603712081909173 L 137.5 1.1102230246251565e-16 L 137.5 73.98999786376952 L 137.5 75.59100341796874 M 126.56600189208984 -65.17800140380858 L 125.4540023803711 -65.37699890136717 L 124.47699737548828 -64.80799865722655 L 124.09100341796875 -63.73899841308592 L 124.47699737548828 -62.6699981689453 L 125.4540023803711 -62.10100173950194 L 126.56600189208984 -62.29899978637694 L 127.29100036621094 -63.1699981689453 L 127.29100036621094 -64.30799865722655 L 126.56600189208984 -65.17800140380858 M 127.29100036621094 64.30699920654295 L 127.29100036621094 63.168998718261705 L 126.56600189208984 62.29899978637694 L 125.4540023803711 62.09999847412108 L 124.47699737548828 62.668998718261705 L 124.09100341796875 63.73799896240233 L 124.47699737548828 64.80699920654295 L 125.4540023803711 65.37699890136717 L 126.56600189208984 65.17800140380858 L 127.29100036621094 64.30699920654295 M -127.39099884033203 -63.73899841308592 L -127.00399780273438 -62.6699981689453 L -126.0270004272461 -62.10100173950194 L -124.91600036621094 -62.29899978637694 L -124.19000244140625 -63.1699981689453 L -124.19000244140625 -64.30799865722655 L -124.91600036621094 -65.17800140380858 L -126.0270004272461 -65.37699890136717 L -127.00399780273438 -64.80799865722655 L -127.39099884033203 -63.73899841308592 M -127.39099884033203 63.73799896240233 L -127.00399780273438 64.80699920654295 L -126.0270004272461 65.37699890136717 L -124.91600036621094 65.17800140380858 L -124.19000244140625 64.30699920654295 L -124.19000244140625 63.168998718261705 L -124.91600036621094 62.29899978637694 L -126.0270004272461 62.09999847412108 L -127.00399780273438 62.668998718261705 L -127.39099884033203 63.73799896240233 z" fill="none" stroke="rgb(255,0,0)" stroke-width="0.001mm" />
</svg>